<mxfile host="app.diagrams.net" modified="2024-06-20T05:00:36.261Z" agent="Mozilla/5.0 (Macintosh; Intel Mac OS X 10_15_7) AppleWebKit/537.36 (KHTML, like Gecko) Chrome/125.0.0.0 Safari/537.36" etag="wsJYcwItmDXNVVf8sFPQ" version="24.5.5" type="github">
  <diagram name="Page-1" id="DLRw-yitNGN551urW2z1">
    <mxGraphModel dx="4830" dy="3373" grid="1" gridSize="10" guides="1" tooltips="1" connect="1" arrows="1" fold="1" page="1" pageScale="1" pageWidth="850" pageHeight="1100" math="0" shadow="0">
      <root>
        <mxCell id="0" />
        <mxCell id="1" parent="0" />
        <mxCell id="3b3Zsl5AixdZR9mtFoUY-1" style="edgeStyle=orthogonalEdgeStyle;rounded=0;orthogonalLoop=1;jettySize=auto;html=1;" edge="1" parent="1" source="3b3Zsl5AixdZR9mtFoUY-13" target="3b3Zsl5AixdZR9mtFoUY-38">
          <mxGeometry relative="1" as="geometry" />
        </mxCell>
        <mxCell id="3b3Zsl5AixdZR9mtFoUY-2" style="edgeStyle=orthogonalEdgeStyle;rounded=0;orthogonalLoop=1;jettySize=auto;html=1;entryX=0;entryY=0.5;entryDx=0;entryDy=0;" edge="1" parent="1" source="3b3Zsl5AixdZR9mtFoUY-13" target="3b3Zsl5AixdZR9mtFoUY-24">
          <mxGeometry relative="1" as="geometry" />
        </mxCell>
        <mxCell id="3b3Zsl5AixdZR9mtFoUY-3" style="edgeStyle=orthogonalEdgeStyle;rounded=0;orthogonalLoop=1;jettySize=auto;html=1;entryX=0;entryY=0.5;entryDx=0;entryDy=0;" edge="1" parent="1" source="3b3Zsl5AixdZR9mtFoUY-13" target="3b3Zsl5AixdZR9mtFoUY-32">
          <mxGeometry relative="1" as="geometry" />
        </mxCell>
        <mxCell id="3b3Zsl5AixdZR9mtFoUY-4" style="edgeStyle=orthogonalEdgeStyle;rounded=0;orthogonalLoop=1;jettySize=auto;html=1;entryX=0;entryY=0.75;entryDx=0;entryDy=0;" edge="1" parent="1" source="3b3Zsl5AixdZR9mtFoUY-13" target="3b3Zsl5AixdZR9mtFoUY-73">
          <mxGeometry relative="1" as="geometry">
            <Array as="points">
              <mxPoint x="-66" y="12" />
              <mxPoint x="-66" y="437" />
            </Array>
          </mxGeometry>
        </mxCell>
        <mxCell id="3b3Zsl5AixdZR9mtFoUY-5" style="edgeStyle=orthogonalEdgeStyle;rounded=0;orthogonalLoop=1;jettySize=auto;html=1;entryX=0;entryY=0.5;entryDx=0;entryDy=0;" edge="1" parent="1" source="3b3Zsl5AixdZR9mtFoUY-13" target="3b3Zsl5AixdZR9mtFoUY-79">
          <mxGeometry relative="1" as="geometry" />
        </mxCell>
        <mxCell id="3b3Zsl5AixdZR9mtFoUY-6" style="edgeStyle=orthogonalEdgeStyle;rounded=0;orthogonalLoop=1;jettySize=auto;html=1;entryX=0;entryY=0.5;entryDx=0;entryDy=0;" edge="1" parent="1" source="3b3Zsl5AixdZR9mtFoUY-13" target="3b3Zsl5AixdZR9mtFoUY-80">
          <mxGeometry relative="1" as="geometry" />
        </mxCell>
        <mxCell id="3b3Zsl5AixdZR9mtFoUY-7" style="edgeStyle=orthogonalEdgeStyle;rounded=0;orthogonalLoop=1;jettySize=auto;html=1;entryX=0;entryY=0.5;entryDx=0;entryDy=0;" edge="1" parent="1" source="3b3Zsl5AixdZR9mtFoUY-13" target="3b3Zsl5AixdZR9mtFoUY-84">
          <mxGeometry relative="1" as="geometry" />
        </mxCell>
        <mxCell id="3b3Zsl5AixdZR9mtFoUY-8" style="edgeStyle=orthogonalEdgeStyle;rounded=0;orthogonalLoop=1;jettySize=auto;html=1;entryX=0;entryY=0.75;entryDx=0;entryDy=0;" edge="1" parent="1" source="3b3Zsl5AixdZR9mtFoUY-13" target="3b3Zsl5AixdZR9mtFoUY-85">
          <mxGeometry relative="1" as="geometry" />
        </mxCell>
        <mxCell id="3b3Zsl5AixdZR9mtFoUY-9" style="edgeStyle=orthogonalEdgeStyle;rounded=0;orthogonalLoop=1;jettySize=auto;html=1;entryX=0;entryY=0.5;entryDx=0;entryDy=0;" edge="1" parent="1" source="3b3Zsl5AixdZR9mtFoUY-13" target="3b3Zsl5AixdZR9mtFoUY-87">
          <mxGeometry relative="1" as="geometry" />
        </mxCell>
        <mxCell id="3b3Zsl5AixdZR9mtFoUY-10" style="edgeStyle=orthogonalEdgeStyle;rounded=0;orthogonalLoop=1;jettySize=auto;html=1;entryX=0;entryY=0.5;entryDx=0;entryDy=0;" edge="1" parent="1" source="3b3Zsl5AixdZR9mtFoUY-13" target="3b3Zsl5AixdZR9mtFoUY-92">
          <mxGeometry relative="1" as="geometry">
            <Array as="points">
              <mxPoint x="-65" y="12" />
              <mxPoint x="-65" y="772" />
            </Array>
          </mxGeometry>
        </mxCell>
        <mxCell id="3b3Zsl5AixdZR9mtFoUY-11" style="edgeStyle=orthogonalEdgeStyle;rounded=0;orthogonalLoop=1;jettySize=auto;html=1;entryX=0;entryY=0.5;entryDx=0;entryDy=0;" edge="1" parent="1" source="3b3Zsl5AixdZR9mtFoUY-13" target="3b3Zsl5AixdZR9mtFoUY-95">
          <mxGeometry relative="1" as="geometry" />
        </mxCell>
        <mxCell id="3b3Zsl5AixdZR9mtFoUY-12" style="edgeStyle=orthogonalEdgeStyle;rounded=0;orthogonalLoop=1;jettySize=auto;html=1;entryX=0;entryY=0.75;entryDx=0;entryDy=0;" edge="1" parent="1" source="3b3Zsl5AixdZR9mtFoUY-13" target="3b3Zsl5AixdZR9mtFoUY-97">
          <mxGeometry relative="1" as="geometry" />
        </mxCell>
        <mxCell id="3b3Zsl5AixdZR9mtFoUY-13" value="" style="verticalLabelPosition=bottom;verticalAlign=top;html=1;shadow=0;dashed=0;strokeWidth=1;shape=mxgraph.android.phone2;strokeColor=#b85450;fillColor=#F82D92;gradientColor=none;" vertex="1" parent="1">
          <mxGeometry x="-200" y="-38" width="50" height="100" as="geometry" />
        </mxCell>
        <mxCell id="3b3Zsl5AixdZR9mtFoUY-14" style="edgeStyle=orthogonalEdgeStyle;rounded=0;orthogonalLoop=1;jettySize=auto;html=1;entryX=1;entryY=0.5;entryDx=0;entryDy=0;" edge="1" parent="1" source="3b3Zsl5AixdZR9mtFoUY-21" target="3b3Zsl5AixdZR9mtFoUY-88">
          <mxGeometry relative="1" as="geometry" />
        </mxCell>
        <mxCell id="3b3Zsl5AixdZR9mtFoUY-15" style="edgeStyle=orthogonalEdgeStyle;rounded=0;orthogonalLoop=1;jettySize=auto;html=1;entryX=1;entryY=0.5;entryDx=0;entryDy=0;" edge="1" parent="1" source="3b3Zsl5AixdZR9mtFoUY-21" target="3b3Zsl5AixdZR9mtFoUY-90">
          <mxGeometry relative="1" as="geometry" />
        </mxCell>
        <mxCell id="3b3Zsl5AixdZR9mtFoUY-16" style="edgeStyle=orthogonalEdgeStyle;rounded=0;orthogonalLoop=1;jettySize=auto;html=1;entryX=1;entryY=0.5;entryDx=0;entryDy=0;" edge="1" parent="1" source="3b3Zsl5AixdZR9mtFoUY-21" target="3b3Zsl5AixdZR9mtFoUY-104">
          <mxGeometry relative="1" as="geometry" />
        </mxCell>
        <mxCell id="3b3Zsl5AixdZR9mtFoUY-17" style="edgeStyle=orthogonalEdgeStyle;rounded=0;orthogonalLoop=1;jettySize=auto;html=1;entryX=1;entryY=0.5;entryDx=0;entryDy=0;" edge="1" parent="1" source="3b3Zsl5AixdZR9mtFoUY-21" target="3b3Zsl5AixdZR9mtFoUY-105">
          <mxGeometry relative="1" as="geometry" />
        </mxCell>
        <mxCell id="3b3Zsl5AixdZR9mtFoUY-18" style="edgeStyle=orthogonalEdgeStyle;rounded=0;orthogonalLoop=1;jettySize=auto;html=1;entryX=1;entryY=0.5;entryDx=0;entryDy=0;" edge="1" parent="1" source="3b3Zsl5AixdZR9mtFoUY-21" target="3b3Zsl5AixdZR9mtFoUY-106">
          <mxGeometry relative="1" as="geometry" />
        </mxCell>
        <mxCell id="3b3Zsl5AixdZR9mtFoUY-19" style="edgeStyle=orthogonalEdgeStyle;rounded=0;orthogonalLoop=1;jettySize=auto;html=1;entryX=1;entryY=0.25;entryDx=0;entryDy=0;" edge="1" parent="1" source="3b3Zsl5AixdZR9mtFoUY-21" target="3b3Zsl5AixdZR9mtFoUY-108">
          <mxGeometry relative="1" as="geometry" />
        </mxCell>
        <mxCell id="3b3Zsl5AixdZR9mtFoUY-20" style="edgeStyle=orthogonalEdgeStyle;rounded=0;orthogonalLoop=1;jettySize=auto;html=1;entryX=1;entryY=0.5;entryDx=0;entryDy=0;" edge="1" parent="1" source="3b3Zsl5AixdZR9mtFoUY-21" target="3b3Zsl5AixdZR9mtFoUY-202">
          <mxGeometry relative="1" as="geometry" />
        </mxCell>
        <mxCell id="3b3Zsl5AixdZR9mtFoUY-21" value="" style="verticalLabelPosition=bottom;aspect=fixed;html=1;shape=mxgraph.salesforce.web;" vertex="1" parent="1">
          <mxGeometry x="1360" y="405.9" width="78.74" height="62.2" as="geometry" />
        </mxCell>
        <mxCell id="3b3Zsl5AixdZR9mtFoUY-22" style="edgeStyle=orthogonalEdgeStyle;rounded=0;orthogonalLoop=1;jettySize=auto;html=1;" edge="1" parent="1" source="3b3Zsl5AixdZR9mtFoUY-24" target="3b3Zsl5AixdZR9mtFoUY-33">
          <mxGeometry relative="1" as="geometry">
            <Array as="points">
              <mxPoint x="150" y="-123" />
              <mxPoint x="150" y="-159" />
            </Array>
          </mxGeometry>
        </mxCell>
        <mxCell id="3b3Zsl5AixdZR9mtFoUY-23" style="edgeStyle=orthogonalEdgeStyle;rounded=0;orthogonalLoop=1;jettySize=auto;html=1;" edge="1" parent="1" source="3b3Zsl5AixdZR9mtFoUY-24" target="3b3Zsl5AixdZR9mtFoUY-86">
          <mxGeometry relative="1" as="geometry">
            <Array as="points">
              <mxPoint x="70.00000000000001" y="-193" />
            </Array>
          </mxGeometry>
        </mxCell>
        <mxCell id="3b3Zsl5AixdZR9mtFoUY-24" value="Authentication" style="rounded=0;whiteSpace=wrap;html=1;" vertex="1" parent="1">
          <mxGeometry x="20.000000000000014" y="-148" width="100.63" height="50" as="geometry" />
        </mxCell>
        <mxCell id="3b3Zsl5AixdZR9mtFoUY-25" value="" style="edgeStyle=orthogonalEdgeStyle;rounded=0;orthogonalLoop=1;jettySize=auto;html=1;" edge="1" parent="1" source="3b3Zsl5AixdZR9mtFoUY-27" target="3b3Zsl5AixdZR9mtFoUY-128">
          <mxGeometry relative="1" as="geometry">
            <mxPoint x="976.8181818181819" y="802" as="targetPoint" />
          </mxGeometry>
        </mxCell>
        <mxCell id="3b3Zsl5AixdZR9mtFoUY-26" style="edgeStyle=orthogonalEdgeStyle;rounded=0;orthogonalLoop=1;jettySize=auto;html=1;entryX=0;entryY=0.5;entryDx=0;entryDy=0;" edge="1" parent="1">
          <mxGeometry relative="1" as="geometry">
            <Array as="points">
              <mxPoint x="623.68" y="709" />
              <mxPoint x="693.68" y="709" />
              <mxPoint x="693.68" y="1022" />
            </Array>
            <mxPoint x="623.770909090908" y="530.7825811717425" as="sourcePoint" />
            <mxPoint x="483.67999999999995" y="1042" as="targetPoint" />
          </mxGeometry>
        </mxCell>
        <mxCell id="3b3Zsl5AixdZR9mtFoUY-27" value="" style="image;aspect=fixed;perimeter=ellipsePerimeter;html=1;align=center;shadow=0;dashed=0;spacingTop=3;image=img/lib/active_directory/web_server.svg;" vertex="1" parent="1">
          <mxGeometry x="514.73" y="344.5" width="148" height="185" as="geometry" />
        </mxCell>
        <mxCell id="3b3Zsl5AixdZR9mtFoUY-28" value="End User" style="text;html=1;align=center;verticalAlign=middle;resizable=0;points=[];autosize=1;strokeColor=none;fillColor=none;" vertex="1" parent="1">
          <mxGeometry x="-210" y="-128" width="70" height="30" as="geometry" />
        </mxCell>
        <mxCell id="3b3Zsl5AixdZR9mtFoUY-29" style="edgeStyle=orthogonalEdgeStyle;rounded=0;orthogonalLoop=1;jettySize=auto;html=1;entryX=1;entryY=0.5;entryDx=0;entryDy=0;" edge="1" parent="1" source="3b3Zsl5AixdZR9mtFoUY-30" target="3b3Zsl5AixdZR9mtFoUY-204">
          <mxGeometry relative="1" as="geometry">
            <Array as="points">
              <mxPoint x="1350" y="997" />
            </Array>
          </mxGeometry>
        </mxCell>
        <mxCell id="3b3Zsl5AixdZR9mtFoUY-30" value="Physican website" style="text;html=1;align=center;verticalAlign=middle;resizable=0;points=[];autosize=1;strokeColor=none;fillColor=none;" vertex="1" parent="1">
          <mxGeometry x="1339.37" y="512" width="120" height="30" as="geometry" />
        </mxCell>
        <mxCell id="3b3Zsl5AixdZR9mtFoUY-31" style="edgeStyle=orthogonalEdgeStyle;rounded=0;orthogonalLoop=1;jettySize=auto;html=1;" edge="1" parent="1" source="3b3Zsl5AixdZR9mtFoUY-32" target="3b3Zsl5AixdZR9mtFoUY-37">
          <mxGeometry relative="1" as="geometry" />
        </mxCell>
        <mxCell id="3b3Zsl5AixdZR9mtFoUY-32" value="Account Setup&amp;nbsp;" style="whiteSpace=wrap;html=1;" vertex="1" parent="1">
          <mxGeometry x="20.000000000000014" y="-68" width="100" height="50" as="geometry" />
        </mxCell>
        <mxCell id="3b3Zsl5AixdZR9mtFoUY-33" value="" style="image;aspect=fixed;html=1;points=[];align=center;fontSize=12;image=img/lib/azure2/ai_machine_learning/Face_APIs.svg;" vertex="1" parent="1">
          <mxGeometry x="200" y="-168" width="28" height="28" as="geometry" />
        </mxCell>
        <mxCell id="3b3Zsl5AixdZR9mtFoUY-34" value="" style="shape=image;html=1;verticalAlign=top;verticalLabelPosition=bottom;labelBackgroundColor=#ffffff;imageAspect=0;aspect=fixed;image=https://cdn0.iconfinder.com/data/icons/security-double-color-red-and-black-vol-1/52/finger__biometric__fingerprint__identity__thumb-128.png" vertex="1" parent="1">
          <mxGeometry x="184" y="-128" width="60" height="60" as="geometry" />
        </mxCell>
        <mxCell id="3b3Zsl5AixdZR9mtFoUY-35" style="edgeStyle=orthogonalEdgeStyle;rounded=0;orthogonalLoop=1;jettySize=auto;html=1;" edge="1" parent="1" source="3b3Zsl5AixdZR9mtFoUY-24">
          <mxGeometry relative="1" as="geometry">
            <mxPoint x="190" y="-108" as="targetPoint" />
            <Array as="points">
              <mxPoint x="170" y="-108" />
              <mxPoint x="190" y="-107" />
            </Array>
          </mxGeometry>
        </mxCell>
        <mxCell id="3b3Zsl5AixdZR9mtFoUY-36" value="" style="image;html=1;image=img/lib/clip_art/networking/Email_128x128.png" vertex="1" parent="1">
          <mxGeometry x="194" y="-68" width="40" height="20" as="geometry" />
        </mxCell>
        <mxCell id="3b3Zsl5AixdZR9mtFoUY-37" value="Info" style="html=1;shadow=0;dashed=0;shape=mxgraph.bootstrap.rrect;rSize=5;strokeColor=none;strokeWidth=1;fillColor=#1CA5B8;fontColor=#FFFFFF;whiteSpace=wrap;align=left;verticalAlign=middle;spacingLeft=0;fontStyle=1;fontSize=14;spacing=5;" vertex="1" parent="1">
          <mxGeometry x="196.5" y="-38" width="35" height="20" as="geometry" />
        </mxCell>
        <mxCell id="3b3Zsl5AixdZR9mtFoUY-38" value="" style="whiteSpace=wrap;html=1;" vertex="1" parent="1">
          <mxGeometry x="20.000000000000014" y="12" width="100" height="210" as="geometry" />
        </mxCell>
        <mxCell id="3b3Zsl5AixdZR9mtFoUY-39" value="" style="image;html=1;image=img/lib/clip_art/people/Doctor_Man_128x128.png" vertex="1" parent="1">
          <mxGeometry x="40.000000000000014" y="22" width="60" height="50" as="geometry" />
        </mxCell>
        <mxCell id="3b3Zsl5AixdZR9mtFoUY-40" value="" style="image;html=1;image=img/lib/clip_art/people/Doctor_Man_128x128.png" vertex="1" parent="1">
          <mxGeometry x="40.000000000000014" y="162" width="60" height="50" as="geometry" />
        </mxCell>
        <mxCell id="3b3Zsl5AixdZR9mtFoUY-41" value="" style="image;html=1;image=img/lib/clip_art/people/Doctor_Man_128x128.png" vertex="1" parent="1">
          <mxGeometry x="40.000000000000014" y="92" width="60" height="50" as="geometry" />
        </mxCell>
        <mxCell id="3b3Zsl5AixdZR9mtFoUY-42" value="Physician Market Place" style="text;html=1;align=center;verticalAlign=middle;resizable=0;points=[];autosize=1;strokeColor=none;fillColor=none;" vertex="1" parent="1">
          <mxGeometry x="-70" y="232" width="150" height="30" as="geometry" />
        </mxCell>
        <mxCell id="3b3Zsl5AixdZR9mtFoUY-43" style="edgeStyle=orthogonalEdgeStyle;rounded=0;orthogonalLoop=1;jettySize=auto;html=1;entryX=0.4;entryY=0.5;entryDx=0;entryDy=0;entryPerimeter=0;" edge="1" parent="1" source="3b3Zsl5AixdZR9mtFoUY-32" target="3b3Zsl5AixdZR9mtFoUY-36">
          <mxGeometry relative="1" as="geometry">
            <Array as="points">
              <mxPoint x="190" y="-58" />
              <mxPoint x="190" y="-58" />
            </Array>
          </mxGeometry>
        </mxCell>
        <mxCell id="3b3Zsl5AixdZR9mtFoUY-44" value="" style="html=1;verticalLabelPosition=bottom;align=center;labelBackgroundColor=#ffffff;verticalAlign=top;strokeWidth=2;strokeColor=#0080F0;shadow=0;dashed=0;shape=mxgraph.ios7.icons.chat;" vertex="1" parent="1">
          <mxGeometry x="204" y="32" width="36" height="24" as="geometry" />
        </mxCell>
        <mxCell id="3b3Zsl5AixdZR9mtFoUY-45" style="edgeStyle=orthogonalEdgeStyle;rounded=0;orthogonalLoop=1;jettySize=auto;html=1;" edge="1" parent="1" source="3b3Zsl5AixdZR9mtFoUY-46" target="3b3Zsl5AixdZR9mtFoUY-63">
          <mxGeometry relative="1" as="geometry">
            <mxPoint x="270" y="262" as="targetPoint" />
            <Array as="points">
              <mxPoint x="226" y="192" />
              <mxPoint x="309" y="192" />
            </Array>
          </mxGeometry>
        </mxCell>
        <mxCell id="3b3Zsl5AixdZR9mtFoUY-46" value="" style="html=1;verticalLabelPosition=bottom;align=center;labelBackgroundColor=#ffffff;verticalAlign=top;strokeWidth=2;strokeColor=#0080F0;shadow=0;dashed=0;shape=mxgraph.ios7.icons.video_conversation;" vertex="1" parent="1">
          <mxGeometry x="208" y="162" width="36" height="25" as="geometry" />
        </mxCell>
        <mxCell id="3b3Zsl5AixdZR9mtFoUY-47" value="Secure Texting" style="text;html=1;align=center;verticalAlign=middle;resizable=0;points=[];autosize=1;strokeColor=none;fillColor=none;" vertex="1" parent="1">
          <mxGeometry x="272" y="26" width="100" height="30" as="geometry" />
        </mxCell>
        <mxCell id="3b3Zsl5AixdZR9mtFoUY-48" style="edgeStyle=orthogonalEdgeStyle;rounded=0;orthogonalLoop=1;jettySize=auto;html=1;entryX=0;entryY=0.5;entryDx=0;entryDy=0;" edge="1" parent="1" source="3b3Zsl5AixdZR9mtFoUY-50" target="3b3Zsl5AixdZR9mtFoUY-27">
          <mxGeometry relative="1" as="geometry" />
        </mxCell>
        <mxCell id="3b3Zsl5AixdZR9mtFoUY-49" style="edgeStyle=orthogonalEdgeStyle;rounded=0;orthogonalLoop=1;jettySize=auto;html=1;" edge="1" parent="1" source="3b3Zsl5AixdZR9mtFoUY-50" target="3b3Zsl5AixdZR9mtFoUY-128">
          <mxGeometry relative="1" as="geometry">
            <Array as="points">
              <mxPoint x="420" y="155" />
              <mxPoint x="420" y="835" />
            </Array>
          </mxGeometry>
        </mxCell>
        <mxCell id="3b3Zsl5AixdZR9mtFoUY-50" value="Video Call(Zoom)" style="text;html=1;align=center;verticalAlign=middle;resizable=0;points=[];autosize=1;strokeColor=none;fillColor=none;" vertex="1" parent="1">
          <mxGeometry x="252" y="139.5" width="120" height="30" as="geometry" />
        </mxCell>
        <mxCell id="3b3Zsl5AixdZR9mtFoUY-51" value="Email" style="text;html=1;align=center;verticalAlign=middle;resizable=0;points=[];autosize=1;strokeColor=none;fillColor=none;" vertex="1" parent="1">
          <mxGeometry x="272" y="-84" width="50" height="30" as="geometry" />
        </mxCell>
        <mxCell id="3b3Zsl5AixdZR9mtFoUY-52" value="Profile Info" style="text;html=1;align=center;verticalAlign=middle;resizable=0;points=[];autosize=1;strokeColor=none;fillColor=none;" vertex="1" parent="1">
          <mxGeometry x="272" y="-38" width="80" height="30" as="geometry" />
        </mxCell>
        <mxCell id="3b3Zsl5AixdZR9mtFoUY-53" value="FaceID" style="text;html=1;align=center;verticalAlign=middle;resizable=0;points=[];autosize=1;strokeColor=none;fillColor=none;" vertex="1" parent="1">
          <mxGeometry x="272" y="-168" width="60" height="30" as="geometry" />
        </mxCell>
        <mxCell id="3b3Zsl5AixdZR9mtFoUY-54" value="Fingerprint" style="text;html=1;align=center;verticalAlign=middle;resizable=0;points=[];autosize=1;strokeColor=none;fillColor=none;" vertex="1" parent="1">
          <mxGeometry x="272" y="-120" width="80" height="30" as="geometry" />
        </mxCell>
        <mxCell id="3b3Zsl5AixdZR9mtFoUY-55" value="" style="html=1;verticalLabelPosition=bottom;align=center;labelBackgroundColor=#ffffff;verticalAlign=top;strokeWidth=2;strokeColor=#0080F0;shadow=0;dashed=0;shape=mxgraph.ios7.icons.alarm_clock;" vertex="1" parent="1">
          <mxGeometry x="157" y="97" width="33" height="35" as="geometry" />
        </mxCell>
        <mxCell id="3b3Zsl5AixdZR9mtFoUY-56" style="edgeStyle=orthogonalEdgeStyle;rounded=0;orthogonalLoop=1;jettySize=auto;html=1;entryX=0.421;entryY=0.882;entryDx=0;entryDy=0;entryPerimeter=0;" edge="1" parent="1" source="3b3Zsl5AixdZR9mtFoUY-55" target="3b3Zsl5AixdZR9mtFoUY-44">
          <mxGeometry relative="1" as="geometry" />
        </mxCell>
        <mxCell id="3b3Zsl5AixdZR9mtFoUY-57" value="Appointment&amp;nbsp; Schedule" style="text;html=1;align=center;verticalAlign=middle;resizable=0;points=[];autosize=1;strokeColor=none;fillColor=none;" vertex="1" parent="1">
          <mxGeometry x="95.50000000000001" y="252" width="150" height="30" as="geometry" />
        </mxCell>
        <mxCell id="3b3Zsl5AixdZR9mtFoUY-58" style="edgeStyle=orthogonalEdgeStyle;rounded=0;orthogonalLoop=1;jettySize=auto;html=1;entryX=0.518;entryY=-0.044;entryDx=0;entryDy=0;entryPerimeter=0;" edge="1" parent="1" source="3b3Zsl5AixdZR9mtFoUY-55" target="3b3Zsl5AixdZR9mtFoUY-57">
          <mxGeometry relative="1" as="geometry" />
        </mxCell>
        <mxCell id="3b3Zsl5AixdZR9mtFoUY-59" style="edgeStyle=orthogonalEdgeStyle;rounded=0;orthogonalLoop=1;jettySize=auto;html=1;entryX=0.066;entryY=0.557;entryDx=0;entryDy=0;entryPerimeter=0;" edge="1" parent="1" source="3b3Zsl5AixdZR9mtFoUY-38" target="3b3Zsl5AixdZR9mtFoUY-55">
          <mxGeometry relative="1" as="geometry" />
        </mxCell>
        <mxCell id="3b3Zsl5AixdZR9mtFoUY-60" style="edgeStyle=orthogonalEdgeStyle;rounded=0;orthogonalLoop=1;jettySize=auto;html=1;entryX=0.287;entryY=-0.12;entryDx=0;entryDy=0;entryPerimeter=0;" edge="1" parent="1" source="3b3Zsl5AixdZR9mtFoUY-55" target="3b3Zsl5AixdZR9mtFoUY-46">
          <mxGeometry relative="1" as="geometry" />
        </mxCell>
        <mxCell id="3b3Zsl5AixdZR9mtFoUY-61" value="Server" style="text;html=1;align=center;verticalAlign=middle;resizable=0;points=[];autosize=1;strokeColor=none;fillColor=none;" vertex="1" parent="1">
          <mxGeometry x="570" y="442" width="60" height="30" as="geometry" />
        </mxCell>
        <mxCell id="3b3Zsl5AixdZR9mtFoUY-62" style="edgeStyle=orthogonalEdgeStyle;rounded=0;orthogonalLoop=1;jettySize=auto;html=1;" edge="1" parent="1" source="3b3Zsl5AixdZR9mtFoUY-63" target="3b3Zsl5AixdZR9mtFoUY-27">
          <mxGeometry relative="1" as="geometry" />
        </mxCell>
        <mxCell id="3b3Zsl5AixdZR9mtFoUY-63" value="" style="shape=image;html=1;verticalAlign=top;verticalLabelPosition=bottom;labelBackgroundColor=#ffffff;imageAspect=0;aspect=fixed;image=https://cdn3.iconfinder.com/data/icons/customer-experience-1/32/Review-128.png" vertex="1" parent="1">
          <mxGeometry x="272" y="222" width="74" height="74" as="geometry" />
        </mxCell>
        <mxCell id="3b3Zsl5AixdZR9mtFoUY-64" value="Feedback" style="text;html=1;align=center;verticalAlign=middle;resizable=0;points=[];autosize=1;strokeColor=none;fillColor=none;" vertex="1" parent="1">
          <mxGeometry x="266" y="302" width="80" height="30" as="geometry" />
        </mxCell>
        <mxCell id="3b3Zsl5AixdZR9mtFoUY-65" style="edgeStyle=orthogonalEdgeStyle;rounded=0;orthogonalLoop=1;jettySize=auto;html=1;entryX=0;entryY=0.75;entryDx=0;entryDy=0;" edge="1" parent="1" source="3b3Zsl5AixdZR9mtFoUY-66" target="3b3Zsl5AixdZR9mtFoUY-63">
          <mxGeometry relative="1" as="geometry" />
        </mxCell>
        <mxCell id="3b3Zsl5AixdZR9mtFoUY-66" value="" style="html=1;verticalLabelPosition=bottom;align=center;labelBackgroundColor=#ffffff;verticalAlign=top;strokeWidth=2;strokeColor=#0080F0;shadow=0;dashed=0;shape=mxgraph.ios7.icons.eye;" vertex="1" parent="1">
          <mxGeometry x="164" y="322" width="36" height="14.1" as="geometry" />
        </mxCell>
        <mxCell id="3b3Zsl5AixdZR9mtFoUY-67" style="edgeStyle=orthogonalEdgeStyle;rounded=0;orthogonalLoop=1;jettySize=auto;html=1;entryX=0;entryY=0.709;entryDx=0;entryDy=0;entryPerimeter=0;" edge="1" parent="1" source="3b3Zsl5AixdZR9mtFoUY-40" target="3b3Zsl5AixdZR9mtFoUY-66">
          <mxGeometry relative="1" as="geometry">
            <Array as="points">
              <mxPoint x="70.00000000000001" y="332" />
            </Array>
          </mxGeometry>
        </mxCell>
        <mxCell id="3b3Zsl5AixdZR9mtFoUY-68" value="Profile View" style="text;html=1;align=center;verticalAlign=middle;resizable=0;points=[];autosize=1;strokeColor=none;fillColor=none;" vertex="1" parent="1">
          <mxGeometry x="137" y="350" width="90" height="30" as="geometry" />
        </mxCell>
        <mxCell id="3b3Zsl5AixdZR9mtFoUY-69" value="" style="sketch=0;html=1;aspect=fixed;strokeColor=none;shadow=0;fillColor=#3B8DF1;verticalAlign=top;labelPosition=center;verticalLabelPosition=bottom;shape=mxgraph.gcp2.view_list" vertex="1" parent="1">
          <mxGeometry x="208" y="422" width="39.45" height="48.7" as="geometry" />
        </mxCell>
        <mxCell id="3b3Zsl5AixdZR9mtFoUY-70" style="edgeStyle=orthogonalEdgeStyle;rounded=0;orthogonalLoop=1;jettySize=auto;html=1;entryX=0;entryY=0.25;entryDx=0;entryDy=0;" edge="1" parent="1" source="3b3Zsl5AixdZR9mtFoUY-71" target="3b3Zsl5AixdZR9mtFoUY-27">
          <mxGeometry relative="1" as="geometry" />
        </mxCell>
        <mxCell id="3b3Zsl5AixdZR9mtFoUY-71" value="In App Notificactions" style="text;html=1;align=center;verticalAlign=middle;resizable=0;points=[];autosize=1;strokeColor=none;fillColor=none;" vertex="1" parent="1">
          <mxGeometry x="266" y="422" width="130" height="30" as="geometry" />
        </mxCell>
        <mxCell id="3b3Zsl5AixdZR9mtFoUY-72" style="edgeStyle=orthogonalEdgeStyle;rounded=0;orthogonalLoop=1;jettySize=auto;html=1;entryX=0;entryY=0.5;entryDx=0;entryDy=0;" edge="1" parent="1" source="3b3Zsl5AixdZR9mtFoUY-73" target="3b3Zsl5AixdZR9mtFoUY-75">
          <mxGeometry relative="1" as="geometry">
            <Array as="points">
              <mxPoint x="77.00000000000001" y="535" />
            </Array>
          </mxGeometry>
        </mxCell>
        <mxCell id="3b3Zsl5AixdZR9mtFoUY-73" value="Notifications" style="whiteSpace=wrap;html=1;" vertex="1" parent="1">
          <mxGeometry x="17" y="392" width="120" height="60" as="geometry" />
        </mxCell>
        <mxCell id="3b3Zsl5AixdZR9mtFoUY-74" style="edgeStyle=orthogonalEdgeStyle;rounded=0;orthogonalLoop=1;jettySize=auto;html=1;entryX=0;entryY=0.44;entryDx=0;entryDy=0;entryPerimeter=0;" edge="1" parent="1" source="3b3Zsl5AixdZR9mtFoUY-73" target="3b3Zsl5AixdZR9mtFoUY-69">
          <mxGeometry relative="1" as="geometry" />
        </mxCell>
        <mxCell id="3b3Zsl5AixdZR9mtFoUY-75" value="" style="image;html=1;image=img/lib/clip_art/networking/Cloud_Computer_128x128.png" vertex="1" parent="1">
          <mxGeometry x="194" y="502" width="56" height="65" as="geometry" />
        </mxCell>
        <mxCell id="3b3Zsl5AixdZR9mtFoUY-76" style="edgeStyle=orthogonalEdgeStyle;rounded=0;orthogonalLoop=1;jettySize=auto;html=1;entryX=0.5;entryY=0;entryDx=0;entryDy=0;" edge="1" parent="1" source="3b3Zsl5AixdZR9mtFoUY-77" target="3b3Zsl5AixdZR9mtFoUY-113">
          <mxGeometry relative="1" as="geometry" />
        </mxCell>
        <mxCell id="3b3Zsl5AixdZR9mtFoUY-77" value="Push Notifications" style="text;html=1;align=center;verticalAlign=middle;resizable=0;points=[];autosize=1;strokeColor=none;fillColor=none;" vertex="1" parent="1">
          <mxGeometry x="266" y="519.5" width="120" height="30" as="geometry" />
        </mxCell>
        <mxCell id="3b3Zsl5AixdZR9mtFoUY-78" style="edgeStyle=orthogonalEdgeStyle;rounded=0;orthogonalLoop=1;jettySize=auto;html=1;" edge="1" parent="1" source="3b3Zsl5AixdZR9mtFoUY-79" target="3b3Zsl5AixdZR9mtFoUY-81">
          <mxGeometry relative="1" as="geometry">
            <Array as="points">
              <mxPoint x="80.00000000000001" y="662" />
            </Array>
          </mxGeometry>
        </mxCell>
        <mxCell id="3b3Zsl5AixdZR9mtFoUY-79" value="Support" style="whiteSpace=wrap;html=1;" vertex="1" parent="1">
          <mxGeometry x="20.000000000000014" y="562" width="120" height="60" as="geometry" />
        </mxCell>
        <mxCell id="3b3Zsl5AixdZR9mtFoUY-80" value="IFrames (Healthcare Market Place)" style="whiteSpace=wrap;html=1;" vertex="1" parent="1">
          <mxGeometry x="-360" y="722" width="180" height="60" as="geometry" />
        </mxCell>
        <mxCell id="3b3Zsl5AixdZR9mtFoUY-81" value="" style="sketch=0;outlineConnect=0;fontColor=#232F3E;gradientColor=none;fillColor=#E7157B;strokeColor=none;dashed=0;verticalLabelPosition=bottom;verticalAlign=top;align=center;html=1;fontSize=12;fontStyle=0;aspect=fixed;pointerEvents=1;shape=mxgraph.aws4.email_notification;" vertex="1" parent="1">
          <mxGeometry x="200" y="652" width="50" height="50" as="geometry" />
        </mxCell>
        <mxCell id="3b3Zsl5AixdZR9mtFoUY-82" style="edgeStyle=orthogonalEdgeStyle;rounded=0;orthogonalLoop=1;jettySize=auto;html=1;entryX=0.5;entryY=0;entryDx=0;entryDy=0;" edge="1" parent="1" source="3b3Zsl5AixdZR9mtFoUY-83" target="3b3Zsl5AixdZR9mtFoUY-27">
          <mxGeometry relative="1" as="geometry" />
        </mxCell>
        <mxCell id="3b3Zsl5AixdZR9mtFoUY-83" value="Email" style="text;html=1;align=center;verticalAlign=middle;resizable=0;points=[];autosize=1;strokeColor=none;fillColor=none;" vertex="1" parent="1">
          <mxGeometry x="272" y="662" width="50" height="30" as="geometry" />
        </mxCell>
        <mxCell id="3b3Zsl5AixdZR9mtFoUY-84" value="Appointments Schedule" style="whiteSpace=wrap;html=1;" vertex="1" parent="1">
          <mxGeometry x="-360" y="832" width="170" height="60" as="geometry" />
        </mxCell>
        <mxCell id="3b3Zsl5AixdZR9mtFoUY-85" value="Timeline/History" style="whiteSpace=wrap;html=1;" vertex="1" parent="1">
          <mxGeometry x="-360" y="1042" width="120" height="60" as="geometry" />
        </mxCell>
        <mxCell id="3b3Zsl5AixdZR9mtFoUY-86" value="email/password" style="text;html=1;align=center;verticalAlign=middle;resizable=0;points=[];autosize=1;strokeColor=none;fillColor=none;" vertex="1" parent="1">
          <mxGeometry x="266" y="-208" width="110" height="30" as="geometry" />
        </mxCell>
        <mxCell id="3b3Zsl5AixdZR9mtFoUY-87" value="In App purchase/subscription model" style="whiteSpace=wrap;html=1;" vertex="1" parent="1">
          <mxGeometry x="-360" y="1152" width="180" height="60" as="geometry" />
        </mxCell>
        <mxCell id="3b3Zsl5AixdZR9mtFoUY-88" value="Authentication&amp;nbsp;" style="whiteSpace=wrap;html=1;" vertex="1" parent="1">
          <mxGeometry x="1150" y="-148" width="120" height="60" as="geometry" />
        </mxCell>
        <mxCell id="3b3Zsl5AixdZR9mtFoUY-89" style="edgeStyle=orthogonalEdgeStyle;rounded=0;orthogonalLoop=1;jettySize=auto;html=1;" edge="1" parent="1" source="3b3Zsl5AixdZR9mtFoUY-90">
          <mxGeometry relative="1" as="geometry">
            <mxPoint x="1030" y="-18" as="targetPoint" />
          </mxGeometry>
        </mxCell>
        <mxCell id="3b3Zsl5AixdZR9mtFoUY-90" value="Dashboard Reports" style="whiteSpace=wrap;html=1;" vertex="1" parent="1">
          <mxGeometry x="1150" y="-48" width="120" height="60" as="geometry" />
        </mxCell>
        <mxCell id="3b3Zsl5AixdZR9mtFoUY-91" style="edgeStyle=orthogonalEdgeStyle;rounded=0;orthogonalLoop=1;jettySize=auto;html=1;exitX=1;exitY=0.5;exitDx=0;exitDy=0;entryX=0.017;entryY=0.69;entryDx=0;entryDy=0;entryPerimeter=0;" edge="1" parent="1" source="3b3Zsl5AixdZR9mtFoUY-92" target="3b3Zsl5AixdZR9mtFoUY-93">
          <mxGeometry relative="1" as="geometry">
            <mxPoint x="-220" y="631.8888888888889" as="targetPoint" />
            <Array as="points">
              <mxPoint x="209" y="772" />
            </Array>
          </mxGeometry>
        </mxCell>
        <mxCell id="3b3Zsl5AixdZR9mtFoUY-92" value="Referals" style="whiteSpace=wrap;html=1;" vertex="1" parent="1">
          <mxGeometry x="20.000000000000014" y="742" width="120" height="60" as="geometry" />
        </mxCell>
        <mxCell id="3b3Zsl5AixdZR9mtFoUY-93" value="" style="html=1;verticalLabelPosition=bottom;align=center;labelBackgroundColor=#ffffff;verticalAlign=top;strokeWidth=2;strokeColor=#0080F0;shadow=0;dashed=0;shape=mxgraph.ios7.icons.share;" vertex="1" parent="1">
          <mxGeometry x="208" y="752.75" width="40" height="38.5" as="geometry" />
        </mxCell>
        <mxCell id="3b3Zsl5AixdZR9mtFoUY-94" value="share to other platforms" style="text;html=1;align=center;verticalAlign=middle;resizable=0;points=[];autosize=1;strokeColor=none;fillColor=none;" vertex="1" parent="1">
          <mxGeometry x="272" y="752.75" width="150" height="30" as="geometry" />
        </mxCell>
        <mxCell id="3b3Zsl5AixdZR9mtFoUY-95" value="Self Lab Ordering" style="whiteSpace=wrap;html=1;" vertex="1" parent="1">
          <mxGeometry x="-360" y="1242" width="120" height="60" as="geometry" />
        </mxCell>
        <mxCell id="3b3Zsl5AixdZR9mtFoUY-96" style="edgeStyle=orthogonalEdgeStyle;rounded=0;orthogonalLoop=1;jettySize=auto;html=1;" edge="1" parent="1">
          <mxGeometry relative="1" as="geometry">
            <mxPoint x="-20" y="1262" as="targetPoint" />
            <mxPoint x="-240" y="1362.0666666666666" as="sourcePoint" />
            <Array as="points">
              <mxPoint x="-240.47000000000003" y="1332.07" />
              <mxPoint x="-59.47" y="1332.07" />
              <mxPoint x="-59.47" y="1262.07" />
            </Array>
          </mxGeometry>
        </mxCell>
        <mxCell id="3b3Zsl5AixdZR9mtFoUY-97" value="Self Refill" style="whiteSpace=wrap;html=1;" vertex="1" parent="1">
          <mxGeometry x="-360" y="1322" width="120" height="60" as="geometry" />
        </mxCell>
        <mxCell id="3b3Zsl5AixdZR9mtFoUY-98" value="Patient Journey" style="text;html=1;align=center;verticalAlign=middle;resizable=0;points=[];autosize=1;strokeColor=none;fillColor=none;" vertex="1" parent="1">
          <mxGeometry x="-230" y="1062" width="110" height="30" as="geometry" />
        </mxCell>
        <mxCell id="3b3Zsl5AixdZR9mtFoUY-99" value="email/password" style="text;html=1;align=center;verticalAlign=middle;resizable=0;points=[];autosize=1;strokeColor=none;fillColor=none;" vertex="1" parent="1">
          <mxGeometry x="870" y="-168" width="110" height="30" as="geometry" />
        </mxCell>
        <mxCell id="3b3Zsl5AixdZR9mtFoUY-100" style="edgeStyle=orthogonalEdgeStyle;rounded=0;orthogonalLoop=1;jettySize=auto;html=1;entryX=0.99;entryY=0.692;entryDx=0;entryDy=0;entryPerimeter=0;" edge="1" parent="1" source="3b3Zsl5AixdZR9mtFoUY-88" target="3b3Zsl5AixdZR9mtFoUY-99">
          <mxGeometry relative="1" as="geometry" />
        </mxCell>
        <mxCell id="3b3Zsl5AixdZR9mtFoUY-101" value="Signup via email link" style="text;html=1;align=center;verticalAlign=middle;resizable=0;points=[];autosize=1;strokeColor=none;fillColor=none;" vertex="1" parent="1">
          <mxGeometry x="850" y="-120" width="130" height="30" as="geometry" />
        </mxCell>
        <mxCell id="3b3Zsl5AixdZR9mtFoUY-102" style="edgeStyle=orthogonalEdgeStyle;rounded=0;orthogonalLoop=1;jettySize=auto;html=1;entryX=1.049;entryY=0.592;entryDx=0;entryDy=0;entryPerimeter=0;" edge="1" parent="1" source="3b3Zsl5AixdZR9mtFoUY-88" target="3b3Zsl5AixdZR9mtFoUY-101">
          <mxGeometry relative="1" as="geometry" />
        </mxCell>
        <mxCell id="3b3Zsl5AixdZR9mtFoUY-103" value="&lt;ul&gt;&lt;li&gt;Total sessions&lt;/li&gt;&lt;li&gt;Total patients&lt;/li&gt;&lt;li&gt;Appointment&amp;nbsp; Request&lt;/li&gt;&lt;li&gt;Completed Appointments&amp;nbsp;&lt;/li&gt;&lt;li&gt;Patient list&lt;/li&gt;&lt;/ul&gt;" style="text;strokeColor=none;fillColor=none;html=1;whiteSpace=wrap;verticalAlign=middle;overflow=hidden;" vertex="1" parent="1">
          <mxGeometry x="840" y="-84" width="180" height="140" as="geometry" />
        </mxCell>
        <mxCell id="3b3Zsl5AixdZR9mtFoUY-104" value="Availability" style="whiteSpace=wrap;html=1;" vertex="1" parent="1">
          <mxGeometry x="1154.5" y="572" width="120" height="60" as="geometry" />
        </mxCell>
        <mxCell id="3b3Zsl5AixdZR9mtFoUY-105" value="Notifications&amp;nbsp;" style="whiteSpace=wrap;html=1;" vertex="1" parent="1">
          <mxGeometry x="1160" y="152" width="120" height="60" as="geometry" />
        </mxCell>
        <mxCell id="3b3Zsl5AixdZR9mtFoUY-106" value="Session Management&amp;nbsp;" style="whiteSpace=wrap;html=1;" vertex="1" parent="1">
          <mxGeometry x="1154.5" y="702" width="120" height="60" as="geometry" />
        </mxCell>
        <mxCell id="3b3Zsl5AixdZR9mtFoUY-107" style="edgeStyle=orthogonalEdgeStyle;rounded=0;orthogonalLoop=1;jettySize=auto;html=1;" edge="1" parent="1" source="3b3Zsl5AixdZR9mtFoUY-108" target="3b3Zsl5AixdZR9mtFoUY-186">
          <mxGeometry relative="1" as="geometry" />
        </mxCell>
        <mxCell id="3b3Zsl5AixdZR9mtFoUY-108" value="" style="whiteSpace=wrap;html=1;" vertex="1" parent="1">
          <mxGeometry x="1160" y="320" width="120" height="142" as="geometry" />
        </mxCell>
        <mxCell id="3b3Zsl5AixdZR9mtFoUY-109" value="" style="verticalLabelPosition=bottom;sketch=0;html=1;fillColor=#282828;strokeColor=none;verticalAlign=top;pointerEvents=1;align=center;shape=mxgraph.cisco_safe.people_places_things_icons.icon1;" vertex="1" parent="1">
          <mxGeometry x="1196.75" y="330" width="46.5" height="50" as="geometry" />
        </mxCell>
        <mxCell id="3b3Zsl5AixdZR9mtFoUY-110" value="Patients" style="text;html=1;align=center;verticalAlign=middle;resizable=0;points=[];autosize=1;strokeColor=none;fillColor=none;" vertex="1" parent="1">
          <mxGeometry x="1185" y="472" width="70" height="30" as="geometry" />
        </mxCell>
        <mxCell id="3b3Zsl5AixdZR9mtFoUY-111" value="" style="shape=mxgraph.signs.people.unisex;html=1;pointerEvents=1;fillColor=#000000;strokeColor=none;verticalLabelPosition=bottom;verticalAlign=top;align=center;" vertex="1" parent="1">
          <mxGeometry x="1185" y="392" width="59" height="50" as="geometry" />
        </mxCell>
        <mxCell id="3b3Zsl5AixdZR9mtFoUY-112" style="edgeStyle=orthogonalEdgeStyle;rounded=0;orthogonalLoop=1;jettySize=auto;html=1;entryX=0.75;entryY=0;entryDx=0;entryDy=0;" edge="1" parent="1" source="3b3Zsl5AixdZR9mtFoUY-113" target="3b3Zsl5AixdZR9mtFoUY-27">
          <mxGeometry relative="1" as="geometry" />
        </mxCell>
        <mxCell id="3b3Zsl5AixdZR9mtFoUY-113" value="" style="strokeColor=#dddddd;shadow=1;strokeWidth=1;rounded=1;absoluteArcSize=1;arcSize=2;" vertex="1" parent="1">
          <mxGeometry x="560" y="42" width="120" height="60" as="geometry" />
        </mxCell>
        <mxCell id="3b3Zsl5AixdZR9mtFoUY-114" value="Firebase" style="sketch=0;dashed=0;connectable=0;html=1;fillColor=#5184F3;strokeColor=none;shape=mxgraph.gcp2.firebase;part=1;labelPosition=right;verticalLabelPosition=middle;align=left;verticalAlign=middle;spacingLeft=5;fontColor=#999999;fontSize=12;" vertex="1" parent="3b3Zsl5AixdZR9mtFoUY-113">
          <mxGeometry width="32.4" height="45" relative="1" as="geometry">
            <mxPoint x="5" y="7" as="offset" />
          </mxGeometry>
        </mxCell>
        <mxCell id="3b3Zsl5AixdZR9mtFoUY-115" value="In App Notificactions" style="text;html=1;align=center;verticalAlign=middle;resizable=0;points=[];autosize=1;strokeColor=none;fillColor=none;" vertex="1" parent="1">
          <mxGeometry x="870" y="132" width="130" height="30" as="geometry" />
        </mxCell>
        <mxCell id="3b3Zsl5AixdZR9mtFoUY-116" value="Push Notifications" style="text;html=1;align=center;verticalAlign=middle;resizable=0;points=[];autosize=1;strokeColor=none;fillColor=none;" vertex="1" parent="1">
          <mxGeometry x="865" y="202" width="120" height="30" as="geometry" />
        </mxCell>
        <mxCell id="3b3Zsl5AixdZR9mtFoUY-117" value="" style="sketch=0;html=1;aspect=fixed;strokeColor=none;shadow=0;fillColor=#3B8DF1;verticalAlign=top;labelPosition=center;verticalLabelPosition=bottom;shape=mxgraph.gcp2.view_list" vertex="1" parent="1">
          <mxGeometry x="760" y="130.14999999999998" width="39.45" height="48.7" as="geometry" />
        </mxCell>
        <mxCell id="3b3Zsl5AixdZR9mtFoUY-118" style="edgeStyle=orthogonalEdgeStyle;rounded=0;orthogonalLoop=1;jettySize=auto;html=1;entryX=0.873;entryY=0.344;entryDx=0;entryDy=0;entryPerimeter=0;" edge="1" parent="1" source="3b3Zsl5AixdZR9mtFoUY-115" target="3b3Zsl5AixdZR9mtFoUY-117">
          <mxGeometry relative="1" as="geometry" />
        </mxCell>
        <mxCell id="3b3Zsl5AixdZR9mtFoUY-119" style="edgeStyle=orthogonalEdgeStyle;rounded=0;orthogonalLoop=1;jettySize=auto;html=1;entryX=1;entryY=0.5;entryDx=0;entryDy=0;" edge="1" parent="1" source="3b3Zsl5AixdZR9mtFoUY-120" target="3b3Zsl5AixdZR9mtFoUY-113">
          <mxGeometry relative="1" as="geometry" />
        </mxCell>
        <mxCell id="3b3Zsl5AixdZR9mtFoUY-120" value="" style="image;html=1;image=img/lib/clip_art/networking/Cloud_Computer_128x128.png" vertex="1" parent="1">
          <mxGeometry x="760" y="197" width="56" height="65" as="geometry" />
        </mxCell>
        <mxCell id="3b3Zsl5AixdZR9mtFoUY-121" style="edgeStyle=orthogonalEdgeStyle;rounded=0;orthogonalLoop=1;jettySize=auto;html=1;entryX=0.714;entryY=0.308;entryDx=0;entryDy=0;entryPerimeter=0;" edge="1" parent="1" source="3b3Zsl5AixdZR9mtFoUY-116" target="3b3Zsl5AixdZR9mtFoUY-120">
          <mxGeometry relative="1" as="geometry" />
        </mxCell>
        <mxCell id="3b3Zsl5AixdZR9mtFoUY-122" style="edgeStyle=orthogonalEdgeStyle;rounded=0;orthogonalLoop=1;jettySize=auto;html=1;entryX=0.985;entryY=0.679;entryDx=0;entryDy=0;entryPerimeter=0;" edge="1" parent="1" source="3b3Zsl5AixdZR9mtFoUY-105" target="3b3Zsl5AixdZR9mtFoUY-115">
          <mxGeometry relative="1" as="geometry" />
        </mxCell>
        <mxCell id="3b3Zsl5AixdZR9mtFoUY-123" style="edgeStyle=orthogonalEdgeStyle;rounded=0;orthogonalLoop=1;jettySize=auto;html=1;entryX=0.988;entryY=0.467;entryDx=0;entryDy=0;entryPerimeter=0;" edge="1" parent="1" source="3b3Zsl5AixdZR9mtFoUY-105" target="3b3Zsl5AixdZR9mtFoUY-116">
          <mxGeometry relative="1" as="geometry" />
        </mxCell>
        <mxCell id="3b3Zsl5AixdZR9mtFoUY-124" value="Email server" style="whiteSpace=wrap;html=1;" vertex="1" parent="1">
          <mxGeometry x="480" y="1002" width="166.55" height="60" as="geometry" />
        </mxCell>
        <mxCell id="3b3Zsl5AixdZR9mtFoUY-125" value="" style="html=1;verticalLabelPosition=bottom;align=center;labelBackgroundColor=#ffffff;verticalAlign=top;strokeWidth=2;strokeColor=#0080F0;shadow=0;dashed=0;shape=mxgraph.ios7.icons.data;" vertex="1" parent="1">
          <mxGeometry x="514.73" y="1162" width="95.27" height="140" as="geometry" />
        </mxCell>
        <mxCell id="3b3Zsl5AixdZR9mtFoUY-126" value="DB" style="text;html=1;align=center;verticalAlign=middle;resizable=0;points=[];autosize=1;strokeColor=none;fillColor=none;" vertex="1" parent="1">
          <mxGeometry x="543.2700000000001" y="1322" width="40" height="30" as="geometry" />
        </mxCell>
        <mxCell id="3b3Zsl5AixdZR9mtFoUY-127" style="edgeStyle=orthogonalEdgeStyle;rounded=0;orthogonalLoop=1;jettySize=auto;html=1;entryX=-0.001;entryY=0.626;entryDx=0;entryDy=0;entryPerimeter=0;" edge="1" parent="1" source="3b3Zsl5AixdZR9mtFoUY-61" target="3b3Zsl5AixdZR9mtFoUY-125">
          <mxGeometry relative="1" as="geometry">
            <Array as="points">
              <mxPoint x="730" y="457" />
              <mxPoint x="730" y="1250" />
            </Array>
          </mxGeometry>
        </mxCell>
        <mxCell id="3b3Zsl5AixdZR9mtFoUY-128" value="" style="sketch=0;outlineConnect=0;fontColor=#232F3E;gradientColor=none;fillColor=#232F3D;strokeColor=none;dashed=0;verticalLabelPosition=bottom;verticalAlign=top;align=center;html=1;fontSize=12;fontStyle=0;aspect=fixed;pointerEvents=1;shape=mxgraph.aws4.external_sdk;" vertex="1" parent="1">
          <mxGeometry x="500" y="772" width="110" height="126.18" as="geometry" />
        </mxCell>
        <mxCell id="3b3Zsl5AixdZR9mtFoUY-129" value="Zoom SDK" style="text;html=1;align=center;verticalAlign=middle;resizable=0;points=[];autosize=1;strokeColor=none;fillColor=none;" vertex="1" parent="1">
          <mxGeometry x="514.73" y="922" width="80" height="30" as="geometry" />
        </mxCell>
        <mxCell id="3b3Zsl5AixdZR9mtFoUY-130" style="edgeStyle=orthogonalEdgeStyle;rounded=0;orthogonalLoop=1;jettySize=auto;html=1;entryX=-0.066;entryY=0.405;entryDx=0;entryDy=0;entryPerimeter=0;" edge="1" parent="1" source="3b3Zsl5AixdZR9mtFoUY-103" target="3b3Zsl5AixdZR9mtFoUY-27">
          <mxGeometry relative="1" as="geometry">
            <Array as="points">
              <mxPoint x="510" y="-14" />
              <mxPoint x="510" y="307" />
            </Array>
          </mxGeometry>
        </mxCell>
        <mxCell id="3b3Zsl5AixdZR9mtFoUY-131" value="" style="strokeWidth=1;shadow=0;dashed=0;align=center;html=1;shape=mxgraph.mockup.forms.rrect;rSize=5;strokeColor=#999999;fillColor=#ffffff;" vertex="1" parent="1">
          <mxGeometry x="919.9999999999999" y="527" width="120" height="130" as="geometry" />
        </mxCell>
        <mxCell id="3b3Zsl5AixdZR9mtFoUY-132" value="October 2014" style="strokeWidth=1;shadow=0;dashed=0;align=center;html=1;shape=mxgraph.mockup.forms.anchor;fontColor=#999999;" vertex="1" parent="3b3Zsl5AixdZR9mtFoUY-131">
          <mxGeometry x="22.5" y="5.942857142857143" width="75" height="14.857142857142858" as="geometry" />
        </mxCell>
        <mxCell id="3b3Zsl5AixdZR9mtFoUY-133" value="&lt;" style="strokeWidth=1;shadow=0;dashed=0;align=center;html=1;shape=mxgraph.mockup.forms.rrect;rSize=4;strokeColor=#999999;fontColor=#008cff;fontSize=19;fontStyle=1;" vertex="1" parent="3b3Zsl5AixdZR9mtFoUY-131">
          <mxGeometry x="6" y="5.942857142857143" width="18.75" height="14.857142857142858" as="geometry" />
        </mxCell>
        <mxCell id="3b3Zsl5AixdZR9mtFoUY-134" value="&gt;" style="strokeWidth=1;shadow=0;dashed=0;align=center;html=1;shape=mxgraph.mockup.forms.rrect;rSize=4;strokeColor=#999999;fontColor=#008cff;fontSize=19;fontStyle=1;" vertex="1" parent="3b3Zsl5AixdZR9mtFoUY-131">
          <mxGeometry x="95.25" y="5.942857142857143" width="18.75" height="14.857142857142858" as="geometry" />
        </mxCell>
        <mxCell id="3b3Zsl5AixdZR9mtFoUY-135" value="Mo" style="strokeWidth=1;shadow=0;dashed=0;align=center;html=1;shape=mxgraph.mockup.forms.anchor;fontColor=#999999;" vertex="1" parent="3b3Zsl5AixdZR9mtFoUY-131">
          <mxGeometry x="7.5" y="20.8" width="15" height="14.857142857142858" as="geometry" />
        </mxCell>
        <mxCell id="3b3Zsl5AixdZR9mtFoUY-136" value="Tu" style="strokeWidth=1;shadow=0;dashed=0;align=center;html=1;shape=mxgraph.mockup.forms.anchor;fontColor=#999999;" vertex="1" parent="3b3Zsl5AixdZR9mtFoUY-131">
          <mxGeometry x="22.5" y="20.8" width="15" height="14.857142857142858" as="geometry" />
        </mxCell>
        <mxCell id="3b3Zsl5AixdZR9mtFoUY-137" value="We" style="strokeWidth=1;shadow=0;dashed=0;align=center;html=1;shape=mxgraph.mockup.forms.anchor;fontColor=#999999;" vertex="1" parent="3b3Zsl5AixdZR9mtFoUY-131">
          <mxGeometry x="37.5" y="20.8" width="15" height="14.857142857142858" as="geometry" />
        </mxCell>
        <mxCell id="3b3Zsl5AixdZR9mtFoUY-138" value="Th" style="strokeWidth=1;shadow=0;dashed=0;align=center;html=1;shape=mxgraph.mockup.forms.anchor;fontColor=#999999;" vertex="1" parent="3b3Zsl5AixdZR9mtFoUY-131">
          <mxGeometry x="52.5" y="20.8" width="15" height="14.857142857142858" as="geometry" />
        </mxCell>
        <mxCell id="3b3Zsl5AixdZR9mtFoUY-139" value="Fr" style="strokeWidth=1;shadow=0;dashed=0;align=center;html=1;shape=mxgraph.mockup.forms.anchor;fontColor=#999999;" vertex="1" parent="3b3Zsl5AixdZR9mtFoUY-131">
          <mxGeometry x="67.5" y="20.8" width="15" height="14.857142857142858" as="geometry" />
        </mxCell>
        <mxCell id="3b3Zsl5AixdZR9mtFoUY-140" value="Sa" style="strokeWidth=1;shadow=0;dashed=0;align=center;html=1;shape=mxgraph.mockup.forms.anchor;fontColor=#999999;" vertex="1" parent="3b3Zsl5AixdZR9mtFoUY-131">
          <mxGeometry x="82.5" y="20.8" width="15" height="14.857142857142858" as="geometry" />
        </mxCell>
        <mxCell id="3b3Zsl5AixdZR9mtFoUY-141" value="Su" style="strokeWidth=1;shadow=0;dashed=0;align=center;html=1;shape=mxgraph.mockup.forms.anchor;fontColor=#999999;" vertex="1" parent="3b3Zsl5AixdZR9mtFoUY-131">
          <mxGeometry x="97.5" y="20.8" width="15" height="14.857142857142858" as="geometry" />
        </mxCell>
        <mxCell id="3b3Zsl5AixdZR9mtFoUY-142" value="1" style="strokeWidth=1;shadow=0;dashed=0;align=center;html=1;shape=mxgraph.mockup.forms.rrect;rSize=0;strokeColor=#999999;fontColor=#999999;" vertex="1" parent="3b3Zsl5AixdZR9mtFoUY-131">
          <mxGeometry x="7.5" y="35.65714285714286" width="15" height="14.857142857142858" as="geometry" />
        </mxCell>
        <mxCell id="3b3Zsl5AixdZR9mtFoUY-143" value="2" style="strokeWidth=1;shadow=0;dashed=0;align=center;html=1;shape=mxgraph.mockup.forms.rrect;rSize=0;strokeColor=#999999;fontColor=#999999;" vertex="1" parent="3b3Zsl5AixdZR9mtFoUY-131">
          <mxGeometry x="22.5" y="35.65714285714286" width="15" height="14.857142857142858" as="geometry" />
        </mxCell>
        <mxCell id="3b3Zsl5AixdZR9mtFoUY-144" value="3" style="strokeWidth=1;shadow=0;dashed=0;align=center;html=1;shape=mxgraph.mockup.forms.rrect;rSize=0;strokeColor=#999999;fontColor=#999999;" vertex="1" parent="3b3Zsl5AixdZR9mtFoUY-131">
          <mxGeometry x="37.5" y="35.65714285714286" width="15" height="14.857142857142858" as="geometry" />
        </mxCell>
        <mxCell id="3b3Zsl5AixdZR9mtFoUY-145" value="4" style="strokeWidth=1;shadow=0;dashed=0;align=center;html=1;shape=mxgraph.mockup.forms.rrect;rSize=0;strokeColor=#999999;fontColor=#999999;" vertex="1" parent="3b3Zsl5AixdZR9mtFoUY-131">
          <mxGeometry x="52.5" y="35.65714285714286" width="15" height="14.857142857142858" as="geometry" />
        </mxCell>
        <mxCell id="3b3Zsl5AixdZR9mtFoUY-146" value="5" style="strokeWidth=1;shadow=0;dashed=0;align=center;html=1;shape=mxgraph.mockup.forms.rrect;rSize=0;strokeColor=#999999;fontColor=#999999;" vertex="1" parent="3b3Zsl5AixdZR9mtFoUY-131">
          <mxGeometry x="67.5" y="35.65714285714286" width="15" height="14.857142857142858" as="geometry" />
        </mxCell>
        <mxCell id="3b3Zsl5AixdZR9mtFoUY-147" value="6" style="strokeWidth=1;shadow=0;dashed=0;align=center;html=1;shape=mxgraph.mockup.forms.rrect;rSize=0;strokeColor=#999999;fontColor=#999999;" vertex="1" parent="3b3Zsl5AixdZR9mtFoUY-131">
          <mxGeometry x="82.5" y="35.65714285714286" width="15" height="14.857142857142858" as="geometry" />
        </mxCell>
        <mxCell id="3b3Zsl5AixdZR9mtFoUY-148" value="7" style="strokeWidth=1;shadow=0;dashed=0;align=center;html=1;shape=mxgraph.mockup.forms.rrect;rSize=0;strokeColor=#999999;fontColor=#999999;" vertex="1" parent="3b3Zsl5AixdZR9mtFoUY-131">
          <mxGeometry x="97.5" y="35.65714285714286" width="15" height="14.857142857142858" as="geometry" />
        </mxCell>
        <mxCell id="3b3Zsl5AixdZR9mtFoUY-149" value="8" style="strokeWidth=1;shadow=0;dashed=0;align=center;html=1;shape=mxgraph.mockup.forms.rrect;rSize=0;strokeColor=#999999;fontColor=#999999;" vertex="1" parent="3b3Zsl5AixdZR9mtFoUY-131">
          <mxGeometry x="7.5" y="50.51428571428572" width="15" height="14.857142857142858" as="geometry" />
        </mxCell>
        <mxCell id="3b3Zsl5AixdZR9mtFoUY-150" value="9" style="strokeWidth=1;shadow=0;dashed=0;align=center;html=1;shape=mxgraph.mockup.forms.rrect;rSize=0;strokeColor=#999999;fontColor=#999999;" vertex="1" parent="3b3Zsl5AixdZR9mtFoUY-131">
          <mxGeometry x="22.5" y="50.51428571428572" width="15" height="14.857142857142858" as="geometry" />
        </mxCell>
        <mxCell id="3b3Zsl5AixdZR9mtFoUY-151" value="10" style="strokeWidth=1;shadow=0;dashed=0;align=center;html=1;shape=mxgraph.mockup.forms.rrect;rSize=0;strokeColor=#999999;fontColor=#999999;" vertex="1" parent="3b3Zsl5AixdZR9mtFoUY-131">
          <mxGeometry x="37.5" y="50.51428571428572" width="15" height="14.857142857142858" as="geometry" />
        </mxCell>
        <mxCell id="3b3Zsl5AixdZR9mtFoUY-152" value="11" style="strokeWidth=1;shadow=0;dashed=0;align=center;html=1;shape=mxgraph.mockup.forms.rrect;rSize=0;strokeColor=#999999;fontColor=#999999;" vertex="1" parent="3b3Zsl5AixdZR9mtFoUY-131">
          <mxGeometry x="52.5" y="50.51428571428572" width="15" height="14.857142857142858" as="geometry" />
        </mxCell>
        <mxCell id="3b3Zsl5AixdZR9mtFoUY-153" value="12" style="strokeWidth=1;shadow=0;dashed=0;align=center;html=1;shape=mxgraph.mockup.forms.rrect;rSize=0;strokeColor=#999999;fontColor=#999999;" vertex="1" parent="3b3Zsl5AixdZR9mtFoUY-131">
          <mxGeometry x="67.5" y="50.51428571428572" width="15" height="14.857142857142858" as="geometry" />
        </mxCell>
        <mxCell id="3b3Zsl5AixdZR9mtFoUY-154" value="13" style="strokeWidth=1;shadow=0;dashed=0;align=center;html=1;shape=mxgraph.mockup.forms.rrect;rSize=0;strokeColor=#999999;fontColor=#999999;" vertex="1" parent="3b3Zsl5AixdZR9mtFoUY-131">
          <mxGeometry x="82.5" y="50.51428571428572" width="15" height="14.857142857142858" as="geometry" />
        </mxCell>
        <mxCell id="3b3Zsl5AixdZR9mtFoUY-155" value="14" style="strokeWidth=1;shadow=0;dashed=0;align=center;html=1;shape=mxgraph.mockup.forms.rrect;rSize=0;strokeColor=#999999;fontColor=#999999;" vertex="1" parent="3b3Zsl5AixdZR9mtFoUY-131">
          <mxGeometry x="97.5" y="50.51428571428572" width="15" height="14.857142857142858" as="geometry" />
        </mxCell>
        <mxCell id="3b3Zsl5AixdZR9mtFoUY-156" value="15" style="strokeWidth=1;shadow=0;dashed=0;align=center;html=1;shape=mxgraph.mockup.forms.rrect;rSize=0;strokeColor=#999999;fontColor=#999999;" vertex="1" parent="3b3Zsl5AixdZR9mtFoUY-131">
          <mxGeometry x="7.5" y="65.37142857142857" width="15" height="14.857142857142858" as="geometry" />
        </mxCell>
        <mxCell id="3b3Zsl5AixdZR9mtFoUY-157" value="16" style="strokeWidth=1;shadow=0;dashed=0;align=center;html=1;shape=mxgraph.mockup.forms.rrect;rSize=0;strokeColor=#999999;fontColor=#999999;" vertex="1" parent="3b3Zsl5AixdZR9mtFoUY-131">
          <mxGeometry x="22.5" y="65.37142857142857" width="15" height="14.857142857142858" as="geometry" />
        </mxCell>
        <mxCell id="3b3Zsl5AixdZR9mtFoUY-158" value="17" style="strokeWidth=1;shadow=0;dashed=0;align=center;html=1;shape=mxgraph.mockup.forms.rrect;rSize=0;strokeColor=#999999;fontColor=#999999;" vertex="1" parent="3b3Zsl5AixdZR9mtFoUY-131">
          <mxGeometry x="37.5" y="65.37142857142857" width="15" height="14.857142857142858" as="geometry" />
        </mxCell>
        <mxCell id="3b3Zsl5AixdZR9mtFoUY-159" value="18" style="strokeWidth=1;shadow=0;dashed=0;align=center;html=1;shape=mxgraph.mockup.forms.rrect;rSize=0;strokeColor=#999999;fontColor=#999999;" vertex="1" parent="3b3Zsl5AixdZR9mtFoUY-131">
          <mxGeometry x="52.5" y="65.37142857142857" width="15" height="14.857142857142858" as="geometry" />
        </mxCell>
        <mxCell id="3b3Zsl5AixdZR9mtFoUY-160" value="19" style="strokeWidth=1;shadow=0;dashed=0;align=center;html=1;shape=mxgraph.mockup.forms.rrect;rSize=0;strokeColor=#999999;fontColor=#999999;" vertex="1" parent="3b3Zsl5AixdZR9mtFoUY-131">
          <mxGeometry x="67.5" y="65.37142857142857" width="15" height="14.857142857142858" as="geometry" />
        </mxCell>
        <mxCell id="3b3Zsl5AixdZR9mtFoUY-161" value="20" style="strokeWidth=1;shadow=0;dashed=0;align=center;html=1;shape=mxgraph.mockup.forms.rrect;rSize=0;strokeColor=#999999;fontColor=#999999;" vertex="1" parent="3b3Zsl5AixdZR9mtFoUY-131">
          <mxGeometry x="82.5" y="65.37142857142857" width="15" height="14.857142857142858" as="geometry" />
        </mxCell>
        <mxCell id="3b3Zsl5AixdZR9mtFoUY-162" value="21" style="strokeWidth=1;shadow=0;dashed=0;align=center;html=1;shape=mxgraph.mockup.forms.rrect;rSize=0;strokeColor=#999999;fontColor=#999999;" vertex="1" parent="3b3Zsl5AixdZR9mtFoUY-131">
          <mxGeometry x="97.5" y="65.37142857142857" width="15" height="14.857142857142858" as="geometry" />
        </mxCell>
        <mxCell id="3b3Zsl5AixdZR9mtFoUY-163" value="22" style="strokeWidth=1;shadow=0;dashed=0;align=center;html=1;shape=mxgraph.mockup.forms.rrect;rSize=0;strokeColor=#999999;fontColor=#999999;" vertex="1" parent="3b3Zsl5AixdZR9mtFoUY-131">
          <mxGeometry x="7.5" y="80.22857142857143" width="15" height="14.857142857142858" as="geometry" />
        </mxCell>
        <mxCell id="3b3Zsl5AixdZR9mtFoUY-164" value="23" style="strokeWidth=1;shadow=0;dashed=0;align=center;html=1;shape=mxgraph.mockup.forms.rrect;rSize=0;strokeColor=#999999;fontColor=#999999;" vertex="1" parent="3b3Zsl5AixdZR9mtFoUY-131">
          <mxGeometry x="22.5" y="80.22857142857143" width="15" height="14.857142857142858" as="geometry" />
        </mxCell>
        <mxCell id="3b3Zsl5AixdZR9mtFoUY-165" value="25" style="strokeWidth=1;shadow=0;dashed=0;align=center;html=1;shape=mxgraph.mockup.forms.rrect;rSize=0;strokeColor=#999999;fontColor=#999999;" vertex="1" parent="3b3Zsl5AixdZR9mtFoUY-131">
          <mxGeometry x="52.5" y="80.22857142857143" width="15" height="14.857142857142858" as="geometry" />
        </mxCell>
        <mxCell id="3b3Zsl5AixdZR9mtFoUY-166" value="26" style="strokeWidth=1;shadow=0;dashed=0;align=center;html=1;shape=mxgraph.mockup.forms.rrect;rSize=0;strokeColor=#999999;fontColor=#999999;" vertex="1" parent="3b3Zsl5AixdZR9mtFoUY-131">
          <mxGeometry x="67.5" y="80.22857142857143" width="15" height="14.857142857142858" as="geometry" />
        </mxCell>
        <mxCell id="3b3Zsl5AixdZR9mtFoUY-167" value="27" style="strokeWidth=1;shadow=0;dashed=0;align=center;html=1;shape=mxgraph.mockup.forms.rrect;rSize=0;strokeColor=#999999;fontColor=#999999;" vertex="1" parent="3b3Zsl5AixdZR9mtFoUY-131">
          <mxGeometry x="82.5" y="80.22857142857143" width="15" height="14.857142857142858" as="geometry" />
        </mxCell>
        <mxCell id="3b3Zsl5AixdZR9mtFoUY-168" value="28" style="strokeWidth=1;shadow=0;dashed=0;align=center;html=1;shape=mxgraph.mockup.forms.rrect;rSize=0;strokeColor=#999999;fontColor=#999999;" vertex="1" parent="3b3Zsl5AixdZR9mtFoUY-131">
          <mxGeometry x="97.5" y="80.22857142857143" width="15" height="14.857142857142858" as="geometry" />
        </mxCell>
        <mxCell id="3b3Zsl5AixdZR9mtFoUY-169" value="29" style="strokeWidth=1;shadow=0;dashed=0;align=center;html=1;shape=mxgraph.mockup.forms.rrect;rSize=0;strokeColor=#999999;fontColor=#999999;" vertex="1" parent="3b3Zsl5AixdZR9mtFoUY-131">
          <mxGeometry x="7.5" y="95.08571428571429" width="15" height="14.857142857142858" as="geometry" />
        </mxCell>
        <mxCell id="3b3Zsl5AixdZR9mtFoUY-170" value="30" style="strokeWidth=1;shadow=0;dashed=0;align=center;html=1;shape=mxgraph.mockup.forms.rrect;rSize=0;strokeColor=#999999;fontColor=#999999;" vertex="1" parent="3b3Zsl5AixdZR9mtFoUY-131">
          <mxGeometry x="22.5" y="95.08571428571429" width="15" height="14.857142857142858" as="geometry" />
        </mxCell>
        <mxCell id="3b3Zsl5AixdZR9mtFoUY-171" value="31" style="strokeWidth=1;shadow=0;dashed=0;align=center;html=1;shape=mxgraph.mockup.forms.rrect;rSize=0;strokeColor=#999999;fontColor=#999999;" vertex="1" parent="3b3Zsl5AixdZR9mtFoUY-131">
          <mxGeometry x="37.5" y="95.08571428571429" width="15" height="14.857142857142858" as="geometry" />
        </mxCell>
        <mxCell id="3b3Zsl5AixdZR9mtFoUY-172" value="1" style="strokeWidth=1;shadow=0;dashed=0;align=center;html=1;shape=mxgraph.mockup.forms.rrect;rSize=0;strokeColor=#999999;fontColor=#999999;fillColor=#ddeeff;" vertex="1" parent="3b3Zsl5AixdZR9mtFoUY-131">
          <mxGeometry x="52.5" y="95.08571428571429" width="15" height="14.857142857142858" as="geometry" />
        </mxCell>
        <mxCell id="3b3Zsl5AixdZR9mtFoUY-173" value="2" style="strokeWidth=1;shadow=0;dashed=0;align=center;html=1;shape=mxgraph.mockup.forms.rrect;rSize=0;strokeColor=#999999;fontColor=#999999;fillColor=#ddeeff;" vertex="1" parent="3b3Zsl5AixdZR9mtFoUY-131">
          <mxGeometry x="67.5" y="95.08571428571429" width="15" height="14.857142857142858" as="geometry" />
        </mxCell>
        <mxCell id="3b3Zsl5AixdZR9mtFoUY-174" value="3" style="strokeWidth=1;shadow=0;dashed=0;align=center;html=1;shape=mxgraph.mockup.forms.rrect;rSize=0;strokeColor=#999999;fontColor=#999999;fillColor=#ddeeff;" vertex="1" parent="3b3Zsl5AixdZR9mtFoUY-131">
          <mxGeometry x="82.5" y="95.08571428571429" width="15" height="14.857142857142858" as="geometry" />
        </mxCell>
        <mxCell id="3b3Zsl5AixdZR9mtFoUY-175" value="4" style="strokeWidth=1;shadow=0;dashed=0;align=center;html=1;shape=mxgraph.mockup.forms.rrect;rSize=0;strokeColor=#999999;fontColor=#999999;fillColor=#ddeeff;" vertex="1" parent="3b3Zsl5AixdZR9mtFoUY-131">
          <mxGeometry x="97.5" y="95.08571428571429" width="15" height="14.857142857142858" as="geometry" />
        </mxCell>
        <mxCell id="3b3Zsl5AixdZR9mtFoUY-176" value="5" style="strokeWidth=1;shadow=0;dashed=0;align=center;html=1;shape=mxgraph.mockup.forms.rrect;rSize=0;strokeColor=#999999;fontColor=#999999;fillColor=#ddeeff;" vertex="1" parent="3b3Zsl5AixdZR9mtFoUY-131">
          <mxGeometry x="7.5" y="109.94285714285715" width="15" height="14.857142857142858" as="geometry" />
        </mxCell>
        <mxCell id="3b3Zsl5AixdZR9mtFoUY-177" value="6" style="strokeWidth=1;shadow=0;dashed=0;align=center;html=1;shape=mxgraph.mockup.forms.rrect;rSize=0;strokeColor=#999999;fontColor=#999999;fillColor=#ddeeff;" vertex="1" parent="3b3Zsl5AixdZR9mtFoUY-131">
          <mxGeometry x="22.5" y="109.94285714285715" width="15" height="14.857142857142858" as="geometry" />
        </mxCell>
        <mxCell id="3b3Zsl5AixdZR9mtFoUY-178" value="7" style="strokeWidth=1;shadow=0;dashed=0;align=center;html=1;shape=mxgraph.mockup.forms.rrect;rSize=0;strokeColor=#999999;fontColor=#999999;fillColor=#ddeeff;" vertex="1" parent="3b3Zsl5AixdZR9mtFoUY-131">
          <mxGeometry x="37.5" y="109.94285714285715" width="15" height="14.857142857142858" as="geometry" />
        </mxCell>
        <mxCell id="3b3Zsl5AixdZR9mtFoUY-179" value="8" style="strokeWidth=1;shadow=0;dashed=0;align=center;html=1;shape=mxgraph.mockup.forms.rrect;rSize=0;strokeColor=#999999;fontColor=#999999;fillColor=#ddeeff;" vertex="1" parent="3b3Zsl5AixdZR9mtFoUY-131">
          <mxGeometry x="52.5" y="109.94285714285715" width="15" height="14.857142857142858" as="geometry" />
        </mxCell>
        <mxCell id="3b3Zsl5AixdZR9mtFoUY-180" value="9" style="strokeWidth=1;shadow=0;dashed=0;align=center;html=1;shape=mxgraph.mockup.forms.rrect;rSize=0;strokeColor=#999999;fontColor=#999999;fillColor=#ddeeff;" vertex="1" parent="3b3Zsl5AixdZR9mtFoUY-131">
          <mxGeometry x="67.5" y="109.94285714285715" width="15" height="14.857142857142858" as="geometry" />
        </mxCell>
        <mxCell id="3b3Zsl5AixdZR9mtFoUY-181" value="10" style="strokeWidth=1;shadow=0;dashed=0;align=center;html=1;shape=mxgraph.mockup.forms.rrect;rSize=0;strokeColor=#999999;fontColor=#999999;fillColor=#ddeeff;" vertex="1" parent="3b3Zsl5AixdZR9mtFoUY-131">
          <mxGeometry x="82.5" y="109.94285714285715" width="15" height="14.857142857142858" as="geometry" />
        </mxCell>
        <mxCell id="3b3Zsl5AixdZR9mtFoUY-182" value="11" style="strokeWidth=1;shadow=0;dashed=0;align=center;html=1;shape=mxgraph.mockup.forms.rrect;rSize=0;strokeColor=#999999;fontColor=#999999;fillColor=#ddeeff;" vertex="1" parent="3b3Zsl5AixdZR9mtFoUY-131">
          <mxGeometry x="97.5" y="109.94285714285715" width="15" height="14.857142857142858" as="geometry" />
        </mxCell>
        <mxCell id="3b3Zsl5AixdZR9mtFoUY-183" value="24" style="strokeWidth=1;shadow=0;dashed=0;align=center;html=1;shape=mxgraph.mockup.forms.rrect;rSize=0;strokeColor=#ff0000;fontColor=#ffffff;strokeWidth=2;fillColor=#008cff;" vertex="1" parent="3b3Zsl5AixdZR9mtFoUY-131">
          <mxGeometry x="37.5" y="80.22857142857143" width="15" height="14.857142857142858" as="geometry" />
        </mxCell>
        <mxCell id="3b3Zsl5AixdZR9mtFoUY-184" style="edgeStyle=orthogonalEdgeStyle;rounded=0;orthogonalLoop=1;jettySize=auto;html=1;entryX=0.998;entryY=0.568;entryDx=0;entryDy=0;entryPerimeter=0;" edge="1" parent="1" source="3b3Zsl5AixdZR9mtFoUY-104" target="3b3Zsl5AixdZR9mtFoUY-131">
          <mxGeometry relative="1" as="geometry" />
        </mxCell>
        <mxCell id="3b3Zsl5AixdZR9mtFoUY-185" style="edgeStyle=orthogonalEdgeStyle;rounded=0;orthogonalLoop=1;jettySize=auto;html=1;entryX=1;entryY=0.5;entryDx=0;entryDy=0;" edge="1" parent="1" source="3b3Zsl5AixdZR9mtFoUY-149" target="3b3Zsl5AixdZR9mtFoUY-27">
          <mxGeometry relative="1" as="geometry" />
        </mxCell>
        <mxCell id="3b3Zsl5AixdZR9mtFoUY-186" value="" style="sketch=0;outlineConnect=0;fontColor=#232F3E;gradientColor=none;fillColor=#ED7100;strokeColor=none;dashed=0;verticalLabelPosition=bottom;verticalAlign=top;align=center;html=1;fontSize=12;fontStyle=0;aspect=fixed;pointerEvents=1;shape=mxgraph.aws4.ecs_task;" vertex="1" parent="1">
          <mxGeometry x="1019.9999999999999" y="330" width="37" height="48" as="geometry" />
        </mxCell>
        <mxCell id="3b3Zsl5AixdZR9mtFoUY-187" value="Task" style="text;html=1;align=center;verticalAlign=middle;resizable=0;points=[];autosize=1;strokeColor=none;fillColor=none;" vertex="1" parent="1">
          <mxGeometry x="1006.9999999999999" y="290" width="50" height="30" as="geometry" />
        </mxCell>
        <mxCell id="3b3Zsl5AixdZR9mtFoUY-188" value="" style="html=1;verticalLabelPosition=bottom;align=center;labelBackgroundColor=#ffffff;verticalAlign=top;strokeWidth=2;strokeColor=#0080F0;shadow=0;dashed=0;shape=mxgraph.ios7.icons.video_conversation;" vertex="1" parent="1">
          <mxGeometry x="976.9999999999999" y="727" width="30" height="15" as="geometry" />
        </mxCell>
        <mxCell id="3b3Zsl5AixdZR9mtFoUY-189" style="edgeStyle=orthogonalEdgeStyle;rounded=0;orthogonalLoop=1;jettySize=auto;html=1;entryX=1.118;entryY=0.358;entryDx=0;entryDy=0;entryPerimeter=0;" edge="1" parent="1" source="3b3Zsl5AixdZR9mtFoUY-106" target="3b3Zsl5AixdZR9mtFoUY-188">
          <mxGeometry relative="1" as="geometry" />
        </mxCell>
        <mxCell id="3b3Zsl5AixdZR9mtFoUY-190" value="" style="html=1;verticalLabelPosition=bottom;align=center;labelBackgroundColor=#ffffff;verticalAlign=top;strokeWidth=2;strokeColor=#0080F0;shadow=0;dashed=0;shape=mxgraph.ios7.icons.chat;" vertex="1" parent="1">
          <mxGeometry x="976.9999999999999" y="784" width="30" height="18" as="geometry" />
        </mxCell>
        <mxCell id="3b3Zsl5AixdZR9mtFoUY-191" style="edgeStyle=orthogonalEdgeStyle;rounded=0;orthogonalLoop=1;jettySize=auto;html=1;entryX=1.182;entryY=0.538;entryDx=0;entryDy=0;entryPerimeter=0;" edge="1" parent="1" source="3b3Zsl5AixdZR9mtFoUY-106" target="3b3Zsl5AixdZR9mtFoUY-190">
          <mxGeometry relative="1" as="geometry">
            <Array as="points">
              <mxPoint x="1080" y="732" />
              <mxPoint x="1080" y="794" />
            </Array>
          </mxGeometry>
        </mxCell>
        <mxCell id="3b3Zsl5AixdZR9mtFoUY-192" value="" style="shape=mxgraph.signs.healthcare.medical_records;html=1;pointerEvents=1;fillColor=#000000;strokeColor=none;verticalLabelPosition=bottom;verticalAlign=top;align=center;" vertex="1" parent="1">
          <mxGeometry x="790" y="718.75" width="98" height="98" as="geometry" />
        </mxCell>
        <mxCell id="3b3Zsl5AixdZR9mtFoUY-193" value="Medical Perception&amp;nbsp;" style="text;html=1;align=center;verticalAlign=middle;resizable=0;points=[];autosize=1;strokeColor=none;fillColor=none;" vertex="1" parent="1">
          <mxGeometry x="810" y="832" width="130" height="30" as="geometry" />
        </mxCell>
        <mxCell id="3b3Zsl5AixdZR9mtFoUY-194" style="edgeStyle=orthogonalEdgeStyle;rounded=0;orthogonalLoop=1;jettySize=auto;html=1;entryX=1;entryY=0.5;entryDx=0;entryDy=0;entryPerimeter=0;" edge="1" parent="1" source="3b3Zsl5AixdZR9mtFoUY-188" target="3b3Zsl5AixdZR9mtFoUY-192">
          <mxGeometry relative="1" as="geometry" />
        </mxCell>
        <mxCell id="3b3Zsl5AixdZR9mtFoUY-195" style="edgeStyle=orthogonalEdgeStyle;rounded=0;orthogonalLoop=1;jettySize=auto;html=1;entryX=1.054;entryY=0.764;entryDx=0;entryDy=0;entryPerimeter=0;" edge="1" parent="1" source="3b3Zsl5AixdZR9mtFoUY-190" target="3b3Zsl5AixdZR9mtFoUY-192">
          <mxGeometry relative="1" as="geometry" />
        </mxCell>
        <mxCell id="3b3Zsl5AixdZR9mtFoUY-196" style="edgeStyle=orthogonalEdgeStyle;rounded=0;orthogonalLoop=1;jettySize=auto;html=1;entryX=0.816;entryY=0.033;entryDx=0;entryDy=0;entryPerimeter=0;" edge="1" parent="1" source="3b3Zsl5AixdZR9mtFoUY-186" target="3b3Zsl5AixdZR9mtFoUY-192">
          <mxGeometry relative="1" as="geometry" />
        </mxCell>
        <mxCell id="3b3Zsl5AixdZR9mtFoUY-197" style="edgeStyle=orthogonalEdgeStyle;rounded=0;orthogonalLoop=1;jettySize=auto;html=1;entryX=0.995;entryY=0.226;entryDx=0;entryDy=0;entryPerimeter=0;" edge="1" parent="1" source="3b3Zsl5AixdZR9mtFoUY-192" target="3b3Zsl5AixdZR9mtFoUY-27">
          <mxGeometry relative="1" as="geometry">
            <Array as="points">
              <mxPoint x="770" y="768" />
              <mxPoint x="770" y="386" />
            </Array>
          </mxGeometry>
        </mxCell>
        <mxCell id="3b3Zsl5AixdZR9mtFoUY-198" style="edgeStyle=orthogonalEdgeStyle;rounded=0;orthogonalLoop=1;jettySize=auto;html=1;" edge="1" parent="1" source="3b3Zsl5AixdZR9mtFoUY-199" target="3b3Zsl5AixdZR9mtFoUY-27">
          <mxGeometry relative="1" as="geometry">
            <Array as="points">
              <mxPoint x="31.000000000000014" y="1062" />
              <mxPoint x="460" y="1062" />
              <mxPoint x="460" y="622" />
              <mxPoint x="589" y="622" />
            </Array>
          </mxGeometry>
        </mxCell>
        <mxCell id="3b3Zsl5AixdZR9mtFoUY-199" value="" style="shape=mxgraph.signs.healthcare.medical_records;html=1;pointerEvents=1;fillColor=#000000;strokeColor=none;verticalLabelPosition=bottom;verticalAlign=top;align=center;" vertex="1" parent="1">
          <mxGeometry x="-18" y="1182" width="98" height="98" as="geometry" />
        </mxCell>
        <mxCell id="3b3Zsl5AixdZR9mtFoUY-200" value="&lt;span style=&quot;color: rgb(0, 0, 0); font-family: Helvetica; font-size: 12px; font-style: normal; font-variant-ligatures: normal; font-variant-caps: normal; font-weight: 400; letter-spacing: normal; orphans: 2; text-align: center; text-indent: 0px; text-transform: none; widows: 2; word-spacing: 0px; -webkit-text-stroke-width: 0px; white-space: nowrap; background-color: rgb(251, 251, 251); text-decoration-thickness: initial; text-decoration-style: initial; text-decoration-color: initial; display: inline !important; float: none;&quot;&gt;Medical Perception&amp;nbsp;&lt;/span&gt;" style="text;whiteSpace=wrap;html=1;" vertex="1" parent="1">
          <mxGeometry x="-20" y="1302" width="140" height="40" as="geometry" />
        </mxCell>
        <mxCell id="3b3Zsl5AixdZR9mtFoUY-201" style="edgeStyle=orthogonalEdgeStyle;rounded=0;orthogonalLoop=1;jettySize=auto;html=1;entryX=0.238;entryY=0.391;entryDx=0;entryDy=0;entryPerimeter=0;" edge="1" parent="1" source="3b3Zsl5AixdZR9mtFoUY-95" target="3b3Zsl5AixdZR9mtFoUY-199">
          <mxGeometry relative="1" as="geometry" />
        </mxCell>
        <mxCell id="3b3Zsl5AixdZR9mtFoUY-202" value="Timeline/History" style="whiteSpace=wrap;html=1;" vertex="1" parent="1">
          <mxGeometry x="1170" y="852" width="120" height="60" as="geometry" />
        </mxCell>
        <mxCell id="3b3Zsl5AixdZR9mtFoUY-203" style="edgeStyle=orthogonalEdgeStyle;rounded=0;orthogonalLoop=1;jettySize=auto;html=1;entryX=1;entryY=0.75;entryDx=0;entryDy=0;" edge="1" parent="1" source="3b3Zsl5AixdZR9mtFoUY-204" target="3b3Zsl5AixdZR9mtFoUY-205">
          <mxGeometry relative="1" as="geometry" />
        </mxCell>
        <mxCell id="3b3Zsl5AixdZR9mtFoUY-204" value="Account Setup&amp;nbsp;" style="whiteSpace=wrap;html=1;" vertex="1" parent="1">
          <mxGeometry x="1190" y="972" width="100" height="50" as="geometry" />
        </mxCell>
        <mxCell id="3b3Zsl5AixdZR9mtFoUY-205" value="" style="image;html=1;image=img/lib/clip_art/networking/Email_128x128.png" vertex="1" parent="1">
          <mxGeometry x="984.9999999999999" y="1012" width="40" height="20" as="geometry" />
        </mxCell>
        <mxCell id="3b3Zsl5AixdZR9mtFoUY-206" value="Info" style="html=1;shadow=0;dashed=0;shape=mxgraph.bootstrap.rrect;rSize=5;strokeColor=none;strokeWidth=1;fillColor=#1CA5B8;fontColor=#FFFFFF;whiteSpace=wrap;align=left;verticalAlign=middle;spacingLeft=0;fontStyle=1;fontSize=14;spacing=5;" vertex="1" parent="1">
          <mxGeometry x="979.9999999999999" y="962" width="35" height="20" as="geometry" />
        </mxCell>
        <mxCell id="3b3Zsl5AixdZR9mtFoUY-207" style="edgeStyle=orthogonalEdgeStyle;rounded=0;orthogonalLoop=1;jettySize=auto;html=1;entryX=1.017;entryY=0.55;entryDx=0;entryDy=0;entryPerimeter=0;" edge="1" parent="1" source="3b3Zsl5AixdZR9mtFoUY-204" target="3b3Zsl5AixdZR9mtFoUY-206">
          <mxGeometry relative="1" as="geometry" />
        </mxCell>
        <mxCell id="3b3Zsl5AixdZR9mtFoUY-208" value="Available slots" style="text;html=1;align=center;verticalAlign=middle;resizable=0;points=[];autosize=1;strokeColor=none;fillColor=none;" vertex="1" parent="1">
          <mxGeometry x="929.9999999999999" y="482" width="100" height="30" as="geometry" />
        </mxCell>
        <mxCell id="3b3Zsl5AixdZR9mtFoUY-209" value="Secure Texting" style="text;html=1;align=center;verticalAlign=middle;resizable=0;points=[];autosize=1;strokeColor=none;fillColor=none;" vertex="1" parent="1">
          <mxGeometry x="939.9999999999999" y="810" width="100" height="30" as="geometry" />
        </mxCell>
        <mxCell id="3b3Zsl5AixdZR9mtFoUY-210" value="Zoom Cal" style="text;html=1;align=center;verticalAlign=middle;resizable=0;points=[];autosize=1;strokeColor=none;fillColor=none;" vertex="1" parent="1">
          <mxGeometry x="949.9999999999999" y="680" width="80" height="30" as="geometry" />
        </mxCell>
        <mxCell id="3b3Zsl5AixdZR9mtFoUY-211" value="Prrofile info" style="text;html=1;align=center;verticalAlign=middle;resizable=0;points=[];autosize=1;strokeColor=none;fillColor=none;" vertex="1" parent="1">
          <mxGeometry x="840" y="950" width="80" height="30" as="geometry" />
        </mxCell>
        <mxCell id="3b3Zsl5AixdZR9mtFoUY-212" value="Email" style="text;html=1;align=center;verticalAlign=middle;resizable=0;points=[];autosize=1;strokeColor=none;fillColor=none;" vertex="1" parent="1">
          <mxGeometry x="840" y="1002" width="50" height="30" as="geometry" />
        </mxCell>
        <mxCell id="3b3Zsl5AixdZR9mtFoUY-213" value="Text" style="text;html=1;align=center;verticalAlign=middle;resizable=0;points=[];autosize=1;strokeColor=none;fillColor=none;" vertex="1" parent="1">
          <mxGeometry x="465" y="-340" width="50" height="30" as="geometry" />
        </mxCell>
        <mxCell id="3b3Zsl5AixdZR9mtFoUY-214" value="" style="ellipse;whiteSpace=wrap;html=1;" vertex="1" parent="1">
          <mxGeometry x="2390" y="110" width="80" height="80" as="geometry" />
        </mxCell>
        <mxCell id="3b3Zsl5AixdZR9mtFoUY-215" value="Text" style="text;html=1;align=center;verticalAlign=middle;resizable=0;points=[];autosize=1;strokeColor=none;fillColor=none;" vertex="1" parent="1">
          <mxGeometry x="2135" y="-122" width="50" height="30" as="geometry" />
        </mxCell>
      </root>
    </mxGraphModel>
  </diagram>
</mxfile>
